# xmcd
#
# Track frame offsets: 
#        150
#        22651
#        39488
#        55757
#        76408
#        94401
#        113418
#        132490
#        152105
#        165266
#        181480
#        202939
#
# Disc length: 2935 seconds
#
# Revision: 0
# Processed by: cddbd v1.5.2PL0 Copyright (c) Steve Scherf et al.
# Submitted via: ExactAudioCopy v1.0b1
#
DISCID=8a0b750c
DTITLE=Cristiano Crochemore - Play It Again
DYEAR=2010
DGENRE=Blues
TTITLE0=Make It Wit Chu
TTITLE1=Trouble In The City
TTITLE2=Medicine Man
TTITLE3=Play It Again
TTITLE4=Call Me No. 5
TTITLE5=Losing Hand
TTITLE6=No Shoes
TTITLE7=None Of Us Are Free
TTITLE8=Why Don't You
TTITLE9=If The Sea Was Whiskey
TTITLE10=Can't Find My Way Home
TTITLE11=Cool Kind Woman Blues
EXTD=
EXTT0=
EXTT1=
EXTT2=
EXTT3=
EXTT4=
EXTT5=
EXTT6=
EXTT7=
EXTT8=
EXTT9=
EXTT10=
EXTT11=
PLAYORDER=
